<svg width="165" height="128" viewBox="0 0 165 128" fill="none" xmlns="http://www.w3.org/2000/svg">
<path d="M63.3274 108.29V105.987L66.3607 105.468V84.5105L63.3274 83.9915V81.6719H66.3607H75.0064C77.8288 81.6719 80.0511 82.2721 81.6407 83.4724C83.2303 84.6728 84.0252 86.4733 84.0252 88.874C84.0252 90.0581 83.6359 91.1124 82.8735 92.0532C82.1111 92.9778 81.1054 93.6753 79.8564 94.1295C80.9432 94.3566 81.884 94.7783 82.6626 95.4109C83.4412 96.0436 84.0414 96.8384 84.4793 97.7467C84.9011 98.6713 85.1282 99.677 85.1282 100.78C85.1282 103.213 84.3171 105.079 82.7113 106.36C81.1054 107.641 78.9156 108.29 76.1581 108.29H63.3274ZM70.0266 92.994H75.9634C77.2773 92.994 78.3479 92.621 79.1589 91.8748C79.97 91.1286 80.3755 90.1067 80.3755 88.8091C80.3755 87.3654 79.9213 86.2948 78.9967 85.5811C78.0721 84.8674 76.7582 84.5105 75.0226 84.5105H70.0428V92.994H70.0266ZM70.0266 105.484H76.1743C77.845 105.484 79.1427 105.079 80.0673 104.268C80.9919 103.456 81.4461 102.305 81.4461 100.829C81.4461 99.7743 81.2676 98.8822 80.927 98.136C80.5864 97.3899 80.0673 96.8222 79.3698 96.4166C78.6723 96.0111 77.7801 95.8165 76.7258 95.8165H70.0266V105.484Z" fill="#3AAEBE"/>
<path d="M94.9102 108.679C92.8177 108.679 91.2119 108.176 90.1251 107.17C89.0383 106.164 88.4868 104.753 88.4868 102.92C88.4868 101.671 88.8436 100.568 89.5411 99.6437C90.2386 98.7191 91.2605 97.9892 92.5906 97.4701C93.9207 96.9511 95.5104 96.6915 97.3596 96.6915H100.944V94.7612C100.944 93.5609 100.571 92.6363 99.8413 91.9875C99.0952 91.3224 98.057 90.998 96.7269 90.998C95.8835 90.998 95.1535 91.0953 94.5371 91.3062C93.9207 91.5009 93.353 91.7766 92.8502 92.1335L92.4609 94.891H89.6384V90.3492C90.5468 89.6355 91.6012 89.084 92.8015 88.7109C94.0018 88.3378 95.332 88.1594 96.808 88.1594C99.2574 88.1594 101.171 88.7271 102.55 89.8788C103.945 91.0304 104.626 92.6688 104.626 94.7937V104.315C104.626 104.575 104.626 104.818 104.643 105.061C104.643 105.305 104.659 105.548 104.691 105.791L106.638 105.986V108.289H101.366C101.253 107.754 101.171 107.267 101.107 106.846C101.042 106.424 100.993 105.986 100.977 105.564C100.263 106.456 99.3872 107.186 98.3328 107.787C97.246 108.387 96.1105 108.679 94.9102 108.679ZM95.4455 105.662C96.6621 105.662 97.7651 105.37 98.7708 104.802C99.7765 104.234 100.49 103.537 100.928 102.742V99.1571H97.2136C95.5266 99.1571 94.2614 99.5464 93.4179 100.341C92.5744 101.136 92.1527 102.012 92.1527 102.985C92.1527 103.845 92.4284 104.51 92.9637 104.964C93.5314 105.435 94.3425 105.662 95.4455 105.662Z" fill="#3AAEBE"/>
<path d="M109.994 108.29V105.987L113.027 105.468V91.1773H109.88V88.5008H113.027V86.0028C113.027 83.8941 113.595 82.272 114.714 81.1203C115.833 79.9687 117.407 79.4009 119.418 79.4009C119.84 79.4009 120.294 79.4334 120.781 79.4983C121.267 79.5631 121.77 79.6605 122.305 79.774L121.851 82.5153C121.624 82.4667 121.332 82.418 120.943 82.3856C120.57 82.3531 120.213 82.3369 119.872 82.3369C118.785 82.3369 117.991 82.6451 117.472 83.2777C116.952 83.9103 116.693 84.8187 116.693 86.0028V88.5008H121.089V91.1773H116.693V105.468L120.148 105.987V108.29H109.994Z" fill="#3AAEBE"/>
<path d="M131.634 108.679C129.996 108.679 128.584 108.273 127.416 107.478C126.249 106.684 125.34 105.564 124.724 104.137C124.107 102.71 123.799 101.055 123.799 99.141V98.7517C123.799 96.6268 124.107 94.7776 124.724 93.1717C125.34 91.5821 126.249 90.3331 127.416 89.4571C128.601 88.5812 130.012 88.127 131.666 88.127C132.85 88.127 133.905 88.3379 134.813 88.7759C135.721 89.2138 136.5 89.8302 137.149 90.6413V82.5795L134.116 82.0605V79.7409H137.149H140.815V105.435L143.848 105.954V108.257H137.636L137.344 105.905C136.679 106.813 135.884 107.495 134.927 107.949C133.986 108.452 132.883 108.679 131.634 108.679ZM132.575 105.759C133.661 105.759 134.586 105.516 135.332 105.029C136.078 104.543 136.695 103.861 137.181 102.969V93.7881C136.711 92.9608 136.095 92.2958 135.332 91.8092C134.57 91.3225 133.678 91.0792 132.623 91.0792C131.455 91.0792 130.498 91.4036 129.736 92.0525C128.974 92.7013 128.422 93.6097 128.049 94.7614C127.676 95.913 127.498 97.2431 127.498 98.7679V99.1572C127.498 101.136 127.919 102.742 128.747 103.942C129.541 105.159 130.823 105.759 132.575 105.759Z" fill="#3AAEBE"/>
<path d="M156.014 108.679C154.148 108.679 152.542 108.257 151.196 107.398C149.85 106.538 148.812 105.354 148.082 103.829C147.352 102.304 146.979 100.585 146.979 98.6223V98.2168C146.979 96.2703 147.352 94.5347 148.082 93.0099C148.812 91.4852 149.85 90.301 151.196 89.4413C152.542 88.5816 154.132 88.1437 155.965 88.1437C157.83 88.1437 159.436 88.5816 160.783 89.4413C162.129 90.301 163.167 91.5014 163.897 93.0099C164.627 94.5185 165 96.2541 165 98.2168V98.6223C165 100.585 164.627 102.321 163.897 103.845C163.167 105.37 162.129 106.554 160.783 107.398C159.453 108.257 157.863 108.679 156.014 108.679ZM156.014 105.873C157.182 105.873 158.155 105.565 158.95 104.932C159.744 104.3 160.328 103.44 160.734 102.353C161.139 101.266 161.334 100.017 161.334 98.6385V98.233C161.334 96.838 161.139 95.6053 160.734 94.5185C160.328 93.4317 159.728 92.572 158.933 91.9393C158.139 91.3067 157.149 90.9985 155.981 90.9985C154.813 90.9985 153.84 91.3067 153.045 91.9393C152.25 92.572 151.65 93.4317 151.261 94.5185C150.872 95.6053 150.661 96.8543 150.661 98.233V98.6385C150.661 100.034 150.855 101.266 151.261 102.353C151.65 103.44 152.25 104.3 153.062 104.932C153.84 105.549 154.83 105.873 156.014 105.873Z" fill="#3AAEBE"/>
<path d="M36.5794 95.6554V87.9667H31.1616V96.0771H36.3523C36.4334 95.9311 36.5145 95.8014 36.5794 95.6554Z" fill="#60C8DC"/>
<path d="M31.1616 100.586C32.7351 99.937 34.0976 98.834 35.1844 97.5363H31.1616V100.586Z" fill="#60C8DC"/>
<path d="M36.578 95.6554V87.9667H30.917V96.0771H36.3347C36.4158 95.9311 36.5131 95.8014 36.578 95.6554Z" fill="#60C8DC"/>
<path d="M30.9329 100.586C32.5712 99.937 33.9987 98.834 35.1179 97.5363H30.9329V100.586Z" fill="#60C8DC"/>
<path d="M36.5795 95.6547C36.5146 95.8007 36.4173 95.9305 36.3524 96.0765H36.5795V95.6547Z" fill="#60C8DC"/>
<path d="M31.1616 100.585V105.419C32.4755 105.419 33.5623 106.36 33.8056 107.609H36.5794V97.552H35.1682C34.0976 98.8335 32.7351 99.9365 31.1616 100.585Z" fill="#60C8DC"/>
<path d="M31.1616 105.42V107.609H33.8056C33.5623 106.36 32.4593 105.42 31.1616 105.42Z" fill="#60C8DC"/>
<path d="M30.9329 105.42V107.723H33.804C33.5283 106.409 32.3441 105.42 30.9329 105.42Z" fill="#60C8DC"/>
<path d="M43.7486 77.0483C42.4185 74.8585 40.8613 72.2794 38.412 72.0199C34.8272 71.6306 34.6812 76.1886 36.579 78.1675C37.7145 79.3679 39.2555 80.3249 40.764 80.9738H43.7649V77.0483H43.7486ZM38.266 77.5674C37.5198 76.9996 37.309 75.8155 37.5847 74.9558C37.8118 74.2583 38.4444 73.9664 39.0933 73.9988C39.5312 74.015 39.953 74.1772 40.2774 74.453C41.0398 75.0856 41.4939 76.0588 41.8995 76.9348C42.2077 77.5674 42.5807 78.3135 42.743 79.011C42.597 78.9299 39.4177 78.4433 38.266 77.5674Z" fill="#EC297B"/>
<path d="M48.4672 80.9581C49.9757 80.3092 51.5167 79.3522 52.6522 78.1519C54.55 76.1729 54.404 71.6149 50.8192 72.0042C48.3374 72.2637 46.7965 74.8753 45.4501 77.0813V80.9581H48.4672ZM48.9376 74.5508C49.2458 74.2913 49.6513 74.1453 50.0731 74.1291C50.6895 74.0967 51.3059 74.3886 51.5167 75.0537C51.7925 75.8809 51.5816 77.0164 50.8679 77.5517C49.7649 78.379 46.7154 78.8656 46.6018 78.9142C46.7478 78.2492 47.1047 77.5517 47.3966 76.9353C47.7697 76.0918 48.2239 75.1672 48.9376 74.5508Z" fill="#EC297B"/>
<path d="M42.7908 82.2724C41.1849 83.1969 40.1305 83.9269 38.2165 83.9593C36.7242 83.9918 35.1183 83.8458 33.8531 84.7704C32.4256 85.8247 31.2253 87.0899 29.6519 87.9496H36.5782V86.1005H43.7316V81.8831C43.4234 81.9804 43.0989 82.0939 42.7908 82.2724Z" fill="#EC297B"/>
<path d="M38.2167 83.9594C40.1308 83.927 41.1851 83.197 42.791 82.2724C43.0992 82.094 43.4074 81.9805 43.7318 81.8831V80.7801H40.8445H29.6359V87.0576C29.6359 87.5929 29.6359 87.9335 29.6359 87.9335C31.2256 87.0738 32.4097 85.8086 33.8371 84.7542C35.1186 83.8621 36.7244 83.9918 38.2167 83.9594Z" fill="#EC297B"/>
<path d="M38.2167 83.9594C40.1308 83.927 41.1851 83.197 42.791 82.2724C43.0992 82.094 43.4074 81.9805 43.7318 81.8831V80.7801H40.8445H29.6359V87.0576C29.6359 87.5929 29.6359 87.9335 29.6359 87.9335C31.2256 87.0738 32.4097 85.8086 33.8371 84.7542C35.1186 83.8621 36.7244 83.9918 38.2167 83.9594Z" fill="#D72B90"/>
<path d="M48.3537 80.7958H45.4501V81.769C46.6991 81.8664 47.9644 82.2881 49.1647 82.5152C50.8679 82.8234 52.6197 82.9207 54.3554 82.7909C56.1559 82.6612 57.2589 82.2232 58.6539 81.0553L58.7512 80.9742V80.7958H48.3537Z" fill="#EC297B"/>
<path d="M48.3537 80.7958H45.4501V81.769C46.6991 81.8664 47.9644 82.2881 49.1647 82.5152C50.8679 82.8234 52.6197 82.9207 54.3554 82.7909C56.1559 82.6612 57.2589 82.2232 58.6539 81.0553L58.7512 80.9742V80.7958H48.3537Z" fill="#D72B90"/>
<path d="M57.4065 97.5363V98.6069L57.3741 107.512L51.0317 107.48H49.7665C49.7503 107.496 49.7503 107.496 49.7341 107.512C49.7016 107.545 49.653 107.561 49.6205 107.593H57.4552V98.6231C57.4552 98.6231 57.4552 98.0879 57.4552 97.5363H57.4065Z" fill="#60C8DC"/>
<path d="M57.4375 95.7849C57.4375 93.9681 57.4375 91.9567 57.4537 90.14H57.4375L57.4212 95.7849V96.0768H57.4537C57.4375 95.8984 57.4375 95.7849 57.4375 95.7849Z" fill="#60C8DC"/>
<path d="M51.0321 95.3472C51.0808 95.2985 51.1295 95.2499 51.1619 95.185C51.8432 94.3577 52.1838 92.9141 52.1838 91.8597C52.1838 90.2701 51.7945 88.9562 51.0159 87.9667H50.8862C50.9997 87.9667 51.3079 88.5669 51.3566 88.6804C51.5025 88.94 51.6323 89.2157 51.7134 89.5077C52.2649 91.1784 51.9081 93.6602 50.9024 95.0877C50.4968 95.6716 49.9291 95.7689 49.2803 96.0771H49.6696C50.2049 95.7689 50.6915 95.7203 51.0321 95.3472Z" fill="#31A1AA"/>
<path d="M50.3164 96.0606C51.0625 95.5902 51.6627 94.6494 52.0358 93.8546C52.4089 93.0597 52.6035 92.1676 52.6197 91.2917C52.636 90.3995 52.4575 89.5074 52.0682 88.6963C51.6789 87.8853 51.0301 87.1878 50.2839 86.7336C49.9109 86.5065 49.5216 86.3281 49.116 86.1983C48.7105 86.0848 48.305 85.9875 47.8833 85.9388C47.056 85.8577 46.245 85.9226 45.4501 86.101C45.7097 86.101 45.9368 86.1497 46.1152 86.1821C46.3585 86.2145 46.618 86.2632 46.8613 86.3119C47.3642 86.4092 47.8508 86.5552 48.3374 86.7336C49.8298 87.3338 50.8679 88.7125 51.0788 90.286C51.2896 91.9567 50.5597 93.5626 49.2134 94.5521C48.7592 94.8765 48.2726 95.136 47.7697 95.3793C47.1533 95.6713 46.5045 95.9633 45.8232 96.0768H50.3002C50.2839 96.0606 50.3002 96.0606 50.3164 96.0606Z" fill="#3D99A4"/>
<path d="M49.5726 97.5363C49.605 97.5688 49.6537 97.6012 49.7024 97.6337C50.3999 98.2014 50.9351 98.98 51.3082 99.8073C51.6813 100.635 51.8759 101.527 51.8759 102.516C51.8759 104.674 51.1622 106.344 49.7672 107.48H51.0325L57.3748 107.512L57.4073 98.6069V97.5526H55.9149H49.5726V97.5363Z" fill="#60C8DC"/>
<path d="M57.422 95.7683L57.4382 90.1234C56.0432 90.1234 55.9621 90.1234 57.4382 90.1234L57.4544 87.9498H50.885C50.9499 87.9498 51.1607 88.3391 51.2094 88.404C51.3554 88.6311 51.4689 88.8744 51.5825 89.1177C52.1502 90.4965 52.0853 92.0699 51.6311 93.4649C51.3392 94.3733 50.8363 95.2492 50.0415 95.8169C49.9604 95.8656 49.7657 96.0602 49.6684 96.0602H57.4382L57.422 95.7683Z" fill="#60C8DC"/>
<path d="M54.3554 82.7746C52.6197 82.9044 50.8679 82.807 49.1647 82.4989C47.9644 82.288 46.6991 81.85 45.4501 81.7527V86.0837H47.056C48.597 86.0837 49.992 86.8136 50.9003 87.9328H58.7512V80.9417L58.6539 81.0228C57.2589 82.2069 56.1559 82.6448 54.3554 82.7746Z" fill="#EC297B"/>
<path d="M54.745 87.9667C54.745 89.4752 55.9615 90.6918 57.4538 90.6918V87.9667H54.745Z" fill="#60C8DC"/>
<path d="M50.3508 98.3481C51.0321 99.1916 51.9404 100.505 51.8755 102.76C51.8755 106.199 49.4424 107.724 49.4424 107.724L57.4555 107.659V98.6887C56.2227 98.1535 54.8764 97.7642 53.449 97.7642C52.2648 97.7642 51.4051 97.9588 50.3508 98.3481Z" fill="#60C8DC"/>
<path d="M57.6668 97.5369C57.6668 100.976 57.6668 104.431 57.6668 107.87C53.0276 107.87 48.3885 107.87 43.7493 107.87C45.6472 107.724 48.0478 107.14 49.4428 105.842C50.854 104.561 51.1136 102.436 50.3512 100.7C49.5564 98.8832 47.5774 98.0722 45.8094 97.5207C45.8094 97.5207 48.0154 97.5207 49.086 97.5207C49.2644 97.5207 49.5888 97.5207 49.5888 97.5207C49.8321 97.6018 50.0917 97.8289 50.2701 98.0235C51.4542 99.2888 52.1193 101.041 52.0706 102.776C52.0219 104.512 51.2758 106.231 50.0268 107.432C52.4275 107.432 54.8444 107.415 57.245 107.415C57.245 104.123 57.245 100.814 57.245 97.5207C57.3748 97.5369 57.5208 97.5369 57.6668 97.5369Z" fill="#3D99A4"/>
<path d="M57.6651 87.9667H57.2272V96.0771H57.6489H57.6651V87.9667Z" fill="#3D99A4"/>
<path d="M36.7901 86.3115H43.7488V85.8898H36.3684V96.0765H36.7901V86.3115Z" fill="#3D99A4"/>
<path d="M31.3733 87.9667H30.9516V96.0771H31.3733V87.9667Z" fill="#3D99A4"/>
<path d="M36.3694 107.382H31.3733V97.5363H30.9516V107.82H36.7911V97.5363H36.3694V107.382Z" fill="#3D99A4"/>
<path d="M71.2116 118.389C71.028 118.002 70.7621 117.705 70.4139 117.496C70.0657 117.281 69.6605 117.173 69.1984 117.173C68.7362 117.173 68.3184 117.281 67.9448 117.496C67.5777 117.705 67.2864 118.009 67.0712 118.408C66.8623 118.8 66.7578 119.256 66.7578 119.775C66.7578 120.294 66.8623 120.75 67.0712 121.143C67.2864 121.535 67.5777 121.839 67.9448 122.054C68.3184 122.263 68.7362 122.368 69.1984 122.368C69.8441 122.368 70.3759 122.175 70.7937 121.788C71.2116 121.402 71.4553 120.88 71.525 120.221H68.885V119.519H72.4461V120.183C72.3955 120.728 72.2245 121.228 71.9333 121.684C71.6421 122.133 71.2591 122.491 70.7842 122.757C70.3094 123.017 69.7808 123.146 69.1984 123.146C68.5843 123.146 68.024 123.004 67.5175 122.719C67.011 122.428 66.609 122.026 66.3115 121.513C66.0203 121 65.8746 120.421 65.8746 119.775C65.8746 119.129 66.0203 118.55 66.3115 118.037C66.609 117.518 67.011 117.116 67.5175 116.831C68.024 116.54 68.5843 116.394 69.1984 116.394C69.9011 116.394 70.5215 116.569 71.0596 116.917C71.6041 117.265 71.9998 117.756 72.2467 118.389H71.2116ZM76.5895 123.156C75.9754 123.156 75.4152 123.013 74.9087 122.728C74.4022 122.437 74.0002 122.035 73.7027 121.522C73.4114 121.003 73.2658 120.421 73.2658 119.775C73.2658 119.129 73.4114 118.55 73.7027 118.037C74.0002 117.518 74.4022 117.116 74.9087 116.831C75.4152 116.54 75.9754 116.394 76.5895 116.394C77.21 116.394 77.7734 116.54 78.2799 116.831C78.7864 117.116 79.1852 117.515 79.4764 118.028C79.7676 118.541 79.9133 119.123 79.9133 119.775C79.9133 120.427 79.7676 121.01 79.4764 121.522C79.1852 122.035 78.7864 122.437 78.2799 122.728C77.7734 123.013 77.21 123.156 76.5895 123.156ZM76.5895 122.406C77.0517 122.406 77.4664 122.298 77.8336 122.083C78.2071 121.867 78.4983 121.56 78.7072 121.162C78.9225 120.763 79.0301 120.301 79.0301 119.775C79.0301 119.243 78.9225 118.781 78.7072 118.389C78.4983 117.99 78.2102 117.683 77.8431 117.468C77.4759 117.252 77.058 117.145 76.5895 117.145C76.1211 117.145 75.7032 117.252 75.336 117.468C74.9688 117.683 74.6776 117.99 74.4624 118.389C74.2534 118.781 74.149 119.243 74.149 119.775C74.149 120.301 74.2534 120.763 74.4624 121.162C74.6776 121.56 74.9688 121.867 75.336 122.083C75.7095 122.298 76.1274 122.406 76.5895 122.406ZM91.9046 116.47L89.9863 123.089H89.0177L87.4793 117.762L85.8839 123.089L84.9248 123.099L83.073 116.47H83.9941L85.4376 122.083L87.033 116.47H88.0016L89.521 122.064L90.9739 116.47H91.9046ZM93.7144 116.47V123.089H92.8503V116.47H93.7144ZM99.2612 116.47V117.173H97.4569V123.089H96.5927V117.173H94.7789V116.47H99.2612ZM105.424 116.47V123.089H104.56V120.089H101.189V123.089H100.325V116.47H101.189V119.376H104.56V116.47H105.424ZM112.746 119.68C112.987 119.718 113.205 119.816 113.401 119.975C113.604 120.133 113.762 120.329 113.876 120.563C113.996 120.798 114.056 121.048 114.056 121.314C114.056 121.649 113.971 121.953 113.8 122.225C113.629 122.491 113.379 122.703 113.05 122.861C112.727 123.013 112.344 123.089 111.901 123.089H109.432V116.47H111.806C112.255 116.47 112.638 116.546 112.955 116.698C113.271 116.844 113.509 117.043 113.667 117.297C113.825 117.55 113.905 117.835 113.905 118.151C113.905 118.544 113.797 118.87 113.582 119.129C113.373 119.383 113.094 119.566 112.746 119.68ZM110.296 119.329H111.749C112.154 119.329 112.467 119.234 112.689 119.044C112.911 118.854 113.021 118.591 113.021 118.256C113.021 117.92 112.911 117.657 112.689 117.468C112.467 117.278 112.148 117.183 111.73 117.183H110.296V119.329ZM111.825 122.377C112.255 122.377 112.591 122.276 112.831 122.073C113.072 121.871 113.192 121.589 113.192 121.228C113.192 120.861 113.066 120.573 112.812 120.364C112.559 120.149 112.221 120.041 111.796 120.041H110.296V122.377H111.825ZM116.12 117.173V119.386H118.532V120.098H116.12V122.377H118.817V123.089H115.256V116.461H118.817V117.173H116.12ZM122.223 123.156C121.786 123.156 121.394 123.08 121.046 122.928C120.704 122.77 120.435 122.554 120.238 122.282C120.042 122.004 119.941 121.684 119.934 121.323H120.856C120.887 121.633 121.014 121.896 121.235 122.111C121.463 122.32 121.793 122.425 122.223 122.425C122.635 122.425 122.957 122.323 123.192 122.121C123.432 121.912 123.553 121.646 123.553 121.323C123.553 121.07 123.483 120.864 123.344 120.706C123.204 120.548 123.03 120.427 122.821 120.345C122.612 120.263 122.331 120.174 121.976 120.079C121.539 119.965 121.188 119.851 120.922 119.737C120.663 119.623 120.438 119.446 120.248 119.205C120.064 118.958 119.972 118.629 119.972 118.218C119.972 117.857 120.064 117.537 120.248 117.259C120.431 116.98 120.688 116.765 121.017 116.613C121.353 116.461 121.736 116.385 122.166 116.385C122.787 116.385 123.293 116.54 123.686 116.85C124.084 117.16 124.309 117.572 124.36 118.085H123.41C123.378 117.832 123.246 117.61 123.011 117.42C122.777 117.224 122.467 117.126 122.081 117.126C121.72 117.126 121.425 117.221 121.197 117.411C120.97 117.594 120.856 117.854 120.856 118.189C120.856 118.43 120.922 118.626 121.055 118.778C121.194 118.93 121.362 119.047 121.558 119.129C121.761 119.205 122.043 119.294 122.403 119.395C122.84 119.516 123.192 119.636 123.458 119.756C123.723 119.87 123.951 120.051 124.141 120.297C124.331 120.538 124.426 120.867 124.426 121.285C124.426 121.608 124.341 121.912 124.17 122.197C123.999 122.482 123.746 122.713 123.41 122.89C123.075 123.067 122.679 123.156 122.223 123.156ZM129.772 116.47V117.173H127.968V123.089H127.103V117.173H125.29V116.47H129.772Z" fill="black"/>
<path d="M50.9542 120.651H62.033" stroke="#231F20" stroke-width="0.324417" stroke-miterlimit="10"/>
<path d="M132.625 120.651H143.704" stroke="#231F20" stroke-width="0.324417" stroke-miterlimit="10"/>
</svg>
